<svg width="176" height="71" xmlns="http://www.w3.org/2000/svg"><g fill="none" fill-rule="evenodd"><path fill="#000" d="M0 71h176V0H0z"/><g fill="#FEFEFE"><path d="M52.15 26.154h4.857l-.736 3.53h-4.855l.733-3.53zm-.962 4.633h4.856l-2.876 13.857H48.31l2.878-13.857zm-6.97-1.638C44.728 26.689 46.3 26 48.952 26c.627 0 2.042.049 2.464.076l-.655 3.15h-.652c-1.051 0-1.147.459-1.258.996l-.116.565h1.701l-.67 3.225h-1.701l-2.208 10.632H41l2.208-10.632h-1.479l.673-3.225h1.475l.341-1.638zM63.322 35.471c.217-1.047-.045-1.355-.669-1.355-.652 0-1.094.562-1.257 1.355l-1.904 9.172h-4.855l2.875-13.855h4.707l-.33 1.586h.048c1.01-1.357 2.358-1.946 3.985-1.946 1.727 0 3.103.973 2.574 3.508l-2.22 10.707h-4.858l1.904-9.172zM71.585 26.154h4.857l-.736 3.53h-4.855l.734-3.53zm-.962 4.633h4.854l-2.876 13.857h-4.855l2.877-13.857zM78.604 40.185c-.071.588-.137 1.027-.03 1.358.106.334.364.54.915.54.85 0 1.17-.82 1.225-1.076.138-.666.031-.874-1.59-1.512-2.895-1.126-4.143-1.87-3.616-4.408.58-2.788 2.52-4.658 6.273-4.658 5.41 0 4.781 3.021 4.515 4.302H82.19c.075-.358.11-.768.008-.997-.122-.258-.37-.387-.896-.387-.5 0-1.063.182-1.222.95-.14.664.458.918 3.17 1.97 1.25.488 2.763 1.153 2.15 4.1C84.688 43.796 81.885 45 78.88 45c-3.528 0-5.26-.947-4.532-4.815h4.255zM89.878 26.716h4.859l-.847 4.072h1.703l-.669 3.225h-1.703l-1.281 6.173c-.185.897-.142 1.28.66 1.28.377 0 .608-.024.792-.077l-.686 3.304c-.41.049-1.709.154-2.435.154-2.778 0-4.132-.105-3.485-3.227l1.58-7.607h-1.477l.67-3.225h1.476l.843-4.072zM101.906 35.088c.28-1.355.06-1.74-.715-1.74-.704 0-1.106.385-1.389 1.74l-.17.822h2.102l.172-.822zm-3.193 5.252c-.154.743-.312 1.742.69 1.742.951 0 1.236-.897 1.529-2.306h4.406c-.394 1.896-1.167 3.2-2.286 4.02-1.12.822-2.58 1.203-4.23 1.203-5.357 0-5.23-3.379-4.419-7.295.808-3.895 2.087-7.276 7.445-7.276 5.531 0 4.846 3.536 3.949 7.864l-.048.23h-6.658l-.378 1.818zM107.997 30.787h4.707l-.426 2.05h.05c.754-1.331 2.054-2.408 3.38-2.408.524 0 .663.05.811.077l-.942 4.531a18.23 18.23 0 00-.585-.076c-.222-.024-.42-.024-.918-.024-1.678 0-2.266.895-2.61 2.535l-1.484 7.172h-4.857l2.874-13.857zM116.778 30.787h4.71l-.429 2.05h.051c.752-1.331 2.053-2.408 3.38-2.408.525 0 .663.05.809.077l-.94 4.531a19.415 19.415 0 00-.586-.076c-.22-.024-.421-.024-.923-.024-1.675 0-2.262.895-2.602 2.535l-1.488 7.172h-4.858l2.876-13.857zM131.5 35.088c.282-1.355.063-1.74-.714-1.74-.698 0-1.107.385-1.387 1.74l-.17.822h2.103l.167-.822zm-3.192 5.252c-.155.743-.313 1.742.689 1.742.952 0 1.238-.897 1.532-2.306h4.407c-.394 1.896-1.168 3.2-2.29 4.02-1.12.822-2.574 1.203-4.227 1.203-5.359 0-5.234-3.379-4.42-7.295.81-3.895 2.086-7.276 7.444-7.276 5.534 0 4.848 3.536 3.949 7.864l-.05.23h-6.656l-.378 1.818z"/></g></g></svg>